<svg width="30" height="28" viewBox="0 0 30 28" fill="none" xmlns="http://www.w3.org/2000/svg">
<path d="M29.9948 9.26405C29.9646 10.249 29.7499 11.2967 28.9696 11.6566C28.5326 11.8588 28.0048 11.6766 27.6843 11.3518C27.3743 11.0393 27.3546 10.563 27.4544 10.1525C27.6298 9.43254 27.7054 8.70189 27.595 7.96052C27.5058 6.96795 27.1853 6.05502 26.6394 5.23094C24.6342 2.20572 20.6951 1.56545 17.7509 3.77884C17.2262 4.17403 16.768 4.63968 16.3673 5.16048C15.6868 6.04583 14.7009 6.04124 14.0008 5.16354C12.7034 3.53529 11.0521 2.5519 8.95926 2.46C6.05139 2.33133 3.0906 4.15412 2.48271 7.77671C2.15306 9.74655 2.74129 11.4912 3.83155 13.0965C4.51656 14.1029 5.38605 14.9453 6.23739 15.7985C8.31962 17.8817 10.4094 19.9572 12.5385 21.9929C14.025 23.4144 15.6823 25.2157 17.8159 25.5175C18.8215 25.6599 19.5761 24.8864 19.5837 23.8892C19.5942 22.4417 19.5746 20.9912 19.5746 19.5436C19.5746 18.3826 19.5761 17.223 19.5791 16.062C19.5791 15.872 19.5171 15.8383 19.3493 15.8399C18.1849 15.846 17.0221 15.8475 15.8577 15.8445C15.2528 15.8429 14.7614 15.4094 14.6631 14.8075C14.5678 14.2254 14.9096 13.651 15.4691 13.458C15.6188 13.4059 15.7745 13.3937 15.9333 13.3937C17.0765 13.3937 18.2182 13.3891 19.3614 13.3982C19.5428 13.3982 19.5821 13.3446 19.5806 13.1685C19.5716 12.084 19.5746 10.998 19.5746 9.91351C19.5746 9.17367 20.0706 8.659 20.7888 8.65441C21.4542 8.64981 21.9577 9.18439 21.9623 9.90891C21.9668 11.0011 21.9713 12.0932 21.9653 13.1853C21.9653 13.3554 22.0092 13.3998 22.177 13.3982C23.051 13.3921 23.925 13.3952 24.7991 13.3937C25.7003 13.3921 26.4292 13.3676 26.8435 14.2928C26.8889 14.5149 26.8813 14.7355 26.8405 14.9576C26.5743 15.6882 25.9634 15.8598 25.2512 15.8552C24.1746 15.8475 23.1024 15.8552 22.0273 15.8567C21.991 15.8567 21.929 15.8291 21.9668 15.9119C21.9713 15.9532 21.9744 15.993 21.9789 16.0344C21.9744 16.8355 21.9683 17.6366 21.9668 18.4362C21.9668 19.778 21.9638 21.1214 21.9668 22.4632C21.9683 23.6227 22.053 24.8359 21.5313 25.9066C19.9148 29.2259 16.1178 27.979 13.7936 26.3921C12.2512 25.3398 10.984 23.9413 9.62159 22.6837C8.12304 21.3021 6.71523 19.8102 5.26054 18.3826C4.06745 17.2108 2.8668 16.0313 1.90356 14.6604C0.447353 12.588 -0.284529 9.97018 0.102582 7.43666C0.435256 5.24932 1.63893 3.26876 3.3401 1.89631C5.27112 0.338516 7.82515 -0.309416 10.2522 0.139388C11.1095 0.297159 11.9427 0.582065 12.7215 0.980321C13.1147 1.18098 13.4988 1.41074 13.8556 1.67114C14.2276 1.94379 14.5406 2.28844 14.9111 2.56262C15.0638 2.67597 15.2589 2.77094 15.4298 2.64687C15.6793 2.46612 15.891 2.18734 16.1344 1.98668C17.9505 0.500882 20.3957 -0.226701 22.7138 0.107221C25.0773 0.447271 27.2714 1.85495 28.587 3.8738C29.3658 5.06857 29.827 6.46706 29.9464 7.89159C29.9767 8.26381 30.0115 8.7555 29.9963 9.26251L29.9948 9.26405Z" fill="#E0003F"/>
</svg>
